<mxfile host="app.diagrams.net" modified="2022-04-13T23:20:29.062Z" agent="5.0 (Windows NT 10.0; Win64; x64) AppleWebKit/537.36 (KHTML, like Gecko) Chrome/100.0.4896.75 Safari/537.36" etag="mrTTsO1G-STtpH8yycZe" version="17.4.4" type="github" pages="3">
  <diagram id="RxmPx9w5jdzufzQm7B2K" name="Page-1">
    <mxGraphModel dx="1102" dy="622" grid="1" gridSize="10" guides="1" tooltips="1" connect="1" arrows="1" fold="1" page="1" pageScale="1" pageWidth="850" pageHeight="1100" math="0" shadow="0">
      <root>
        <mxCell id="0" />
        <mxCell id="1" parent="0" />
        <mxCell id="TXXqWg1TCEIOcqlLvXfd-5" value="Application&amp;nbsp;&lt;br&gt;Developer" style="shape=umlActor;verticalLabelPosition=bottom;verticalAlign=top;html=1;outlineConnect=0;" parent="1" vertex="1">
          <mxGeometry x="50" y="40" width="30" height="60" as="geometry" />
        </mxCell>
        <mxCell id="TXXqWg1TCEIOcqlLvXfd-38" style="edgeStyle=orthogonalEdgeStyle;rounded=0;orthogonalLoop=1;jettySize=auto;html=1;entryX=0.5;entryY=0;entryDx=0;entryDy=0;fontSize=12;" parent="1" target="TXXqWg1TCEIOcqlLvXfd-29" edge="1">
          <mxGeometry relative="1" as="geometry">
            <mxPoint x="680" y="60" as="sourcePoint" />
          </mxGeometry>
        </mxCell>
        <mxCell id="TXXqWg1TCEIOcqlLvXfd-52" style="edgeStyle=orthogonalEdgeStyle;rounded=0;orthogonalLoop=1;jettySize=auto;html=1;entryX=1;entryY=0.5;entryDx=0;entryDy=0;fontSize=12;" parent="1" target="TXXqWg1TCEIOcqlLvXfd-28" edge="1">
          <mxGeometry relative="1" as="geometry">
            <mxPoint x="630" y="60" as="sourcePoint" />
          </mxGeometry>
        </mxCell>
        <mxCell id="TXXqWg1TCEIOcqlLvXfd-14" value="Pipeline&lt;br&gt;Developer&lt;br&gt;" style="shape=umlActor;verticalLabelPosition=bottom;verticalAlign=top;html=1;outlineConnect=0;" parent="1" vertex="1">
          <mxGeometry x="635" y="30" width="30" height="60" as="geometry" />
        </mxCell>
        <mxCell id="TXXqWg1TCEIOcqlLvXfd-17" value="&lt;b&gt;VM&lt;/b&gt;" style="html=1;points=[];perimeter=orthogonalPerimeter;fillColor=#d5e8d4;strokeColor=#82b366;" parent="1" vertex="1">
          <mxGeometry x="55" y="160" width="20" height="250" as="geometry" />
        </mxCell>
        <mxCell id="TXXqWg1TCEIOcqlLvXfd-18" value="" style="html=1;points=[];perimeter=orthogonalPerimeter;fillColor=#d5e8d4;strokeColor=#82b366;" parent="1" vertex="1">
          <mxGeometry x="310" y="160" width="20" height="250" as="geometry" />
        </mxCell>
        <mxCell id="TXXqWg1TCEIOcqlLvXfd-19" value="" style="html=1;points=[];perimeter=orthogonalPerimeter;fillColor=#d5e8d4;strokeColor=#82b366;" parent="1" vertex="1">
          <mxGeometry x="520" y="160" width="20" height="250" as="geometry" />
        </mxCell>
        <mxCell id="TXXqWg1TCEIOcqlLvXfd-20" value="" style="html=1;points=[];perimeter=orthogonalPerimeter;fillColor=#d5e8d4;strokeColor=#82b366;" parent="1" vertex="1">
          <mxGeometry x="760" y="160" width="20" height="250" as="geometry" />
        </mxCell>
        <mxCell id="TXXqWg1TCEIOcqlLvXfd-24" style="edgeStyle=orthogonalEdgeStyle;rounded=0;orthogonalLoop=1;jettySize=auto;html=1;exitX=1;exitY=0.5;exitDx=0;exitDy=0;" parent="1" source="TXXqWg1TCEIOcqlLvXfd-21" target="TXXqWg1TCEIOcqlLvXfd-22" edge="1">
          <mxGeometry relative="1" as="geometry" />
        </mxCell>
        <mxCell id="TXXqWg1TCEIOcqlLvXfd-21" value="Build&lt;span style=&quot;white-space: pre; font-size: 18px;&quot;&gt; &lt;/span&gt;" style="rounded=0;whiteSpace=wrap;html=1;fillColor=#d5e8d4;strokeColor=#82b366;fontStyle=1;fontSize=18;" parent="1" vertex="1">
          <mxGeometry x="75" y="790" width="120" height="60" as="geometry" />
        </mxCell>
        <mxCell id="TXXqWg1TCEIOcqlLvXfd-25" style="edgeStyle=orthogonalEdgeStyle;rounded=0;orthogonalLoop=1;jettySize=auto;html=1;exitX=1;exitY=0.5;exitDx=0;exitDy=0;entryX=0;entryY=0.5;entryDx=0;entryDy=0;" parent="1" source="TXXqWg1TCEIOcqlLvXfd-22" target="TXXqWg1TCEIOcqlLvXfd-23" edge="1">
          <mxGeometry relative="1" as="geometry" />
        </mxCell>
        <mxCell id="TXXqWg1TCEIOcqlLvXfd-22" value="Test" style="rounded=0;whiteSpace=wrap;html=1;fillColor=#d5e8d4;strokeColor=#82b366;fontStyle=1;fontSize=18;" parent="1" vertex="1">
          <mxGeometry x="335" y="790" width="120" height="60" as="geometry" />
        </mxCell>
        <mxCell id="TXXqWg1TCEIOcqlLvXfd-23" value="Deploy" style="rounded=0;whiteSpace=wrap;html=1;fillColor=#d5e8d4;strokeColor=#82b366;fontStyle=1;fontSize=18;" parent="1" vertex="1">
          <mxGeometry x="585" y="790" width="120" height="60" as="geometry" />
        </mxCell>
        <mxCell id="TXXqWg1TCEIOcqlLvXfd-26" value="BitBucket&amp;nbsp;&lt;br style=&quot;font-size: 13px;&quot;&gt;Repo" style="rounded=1;whiteSpace=wrap;html=1;fillColor=#fff2cc;strokeColor=#d6b656;fontSize=13;" parent="1" vertex="1">
          <mxGeometry x="280" y="80" width="80" height="60" as="geometry" />
        </mxCell>
        <mxCell id="TXXqWg1TCEIOcqlLvXfd-27" value="Jenkins Pipeline(CI Server)" style="rounded=1;whiteSpace=wrap;html=1;fillColor=#fff2cc;strokeColor=#d6b656;fontSize=13;" parent="1" vertex="1">
          <mxGeometry x="490" y="20" width="80" height="60" as="geometry" />
        </mxCell>
        <mxCell id="TXXqWg1TCEIOcqlLvXfd-28" value="Test Scenarios&lt;br&gt;&amp;nbsp;Integrated with Jenkins" style="rounded=1;whiteSpace=wrap;html=1;fillColor=#fff2cc;strokeColor=#d6b656;fontSize=13;" parent="1" vertex="1">
          <mxGeometry x="490" y="90" width="80" height="60" as="geometry" />
        </mxCell>
        <mxCell id="TXXqWg1TCEIOcqlLvXfd-29" value="Release Script" style="rounded=1;whiteSpace=wrap;html=1;fillColor=#fff2cc;strokeColor=#d6b656;fontSize=13;" parent="1" vertex="1">
          <mxGeometry x="730" y="70" width="80" height="60" as="geometry" />
        </mxCell>
        <mxCell id="TXXqWg1TCEIOcqlLvXfd-32" value="push code to &lt;br&gt;Bitbucket repo" style="endArrow=open;endSize=12;dashed=1;html=1;fontSize=12;entryX=0;entryY=0.44;entryDx=0;entryDy=0;entryPerimeter=0;" parent="1" target="TXXqWg1TCEIOcqlLvXfd-18" edge="1">
          <mxGeometry width="160" relative="1" as="geometry">
            <mxPoint x="75" y="270" as="sourcePoint" />
            <mxPoint x="235" y="270" as="targetPoint" />
          </mxGeometry>
        </mxCell>
        <mxCell id="TXXqWg1TCEIOcqlLvXfd-33" value="&lt;font style=&quot;font-size: 12px&quot;&gt;Unit tests after&lt;br&gt;&amp;nbsp;each commit&lt;/font&gt;" style="endArrow=open;endSize=12;dashed=1;html=1;fontSize=13;" parent="1" target="TXXqWg1TCEIOcqlLvXfd-19" edge="1">
          <mxGeometry width="160" relative="1" as="geometry">
            <mxPoint x="330" y="270" as="sourcePoint" />
            <mxPoint x="500" y="270" as="targetPoint" />
          </mxGeometry>
        </mxCell>
        <mxCell id="TXXqWg1TCEIOcqlLvXfd-53" style="edgeStyle=orthogonalEdgeStyle;rounded=0;orthogonalLoop=1;jettySize=auto;html=1;exitX=0;exitY=0.5;exitDx=0;exitDy=0;entryX=1;entryY=0.3333333333333333;entryDx=0;entryDy=0;entryPerimeter=0;fontSize=12;" parent="1" source="TXXqWg1TCEIOcqlLvXfd-34" target="TXXqWg1TCEIOcqlLvXfd-5" edge="1">
          <mxGeometry relative="1" as="geometry">
            <Array as="points">
              <mxPoint x="250" y="330" />
              <mxPoint x="250" y="60" />
            </Array>
          </mxGeometry>
        </mxCell>
        <mxCell id="TXXqWg1TCEIOcqlLvXfd-34" value="&lt;b&gt;Fail&lt;/b&gt;" style="rounded=1;whiteSpace=wrap;html=1;fillColor=#f8cecc;strokeColor=#b85450;fontSize=13;" parent="1" vertex="1">
          <mxGeometry x="370" y="300" width="80" height="60" as="geometry" />
        </mxCell>
        <mxCell id="TXXqWg1TCEIOcqlLvXfd-47" value="" style="edgeStyle=orthogonalEdgeStyle;rounded=0;orthogonalLoop=1;jettySize=auto;html=1;fontSize=12;exitX=0.5;exitY=1;exitDx=0;exitDy=0;" parent="1" source="TXXqWg1TCEIOcqlLvXfd-35" edge="1">
          <mxGeometry relative="1" as="geometry">
            <mxPoint x="610" y="380" as="targetPoint" />
            <Array as="points">
              <mxPoint x="410" y="450" />
              <mxPoint x="580" y="450" />
              <mxPoint x="580" y="380" />
            </Array>
          </mxGeometry>
        </mxCell>
        <mxCell id="TXXqWg1TCEIOcqlLvXfd-49" value="When" style="edgeLabel;html=1;align=center;verticalAlign=middle;resizable=0;points=[];fontSize=12;" parent="TXXqWg1TCEIOcqlLvXfd-47" vertex="1" connectable="0">
          <mxGeometry x="-0.0276" y="2" relative="1" as="geometry">
            <mxPoint as="offset" />
          </mxGeometry>
        </mxCell>
        <mxCell id="TXXqWg1TCEIOcqlLvXfd-54" style="edgeStyle=orthogonalEdgeStyle;rounded=0;orthogonalLoop=1;jettySize=auto;html=1;exitX=0;exitY=0.5;exitDx=0;exitDy=0;fontSize=12;" parent="1" source="TXXqWg1TCEIOcqlLvXfd-35" edge="1">
          <mxGeometry relative="1" as="geometry">
            <mxPoint x="250" y="80" as="targetPoint" />
          </mxGeometry>
        </mxCell>
        <mxCell id="TXXqWg1TCEIOcqlLvXfd-35" value="&lt;b&gt;Pass&lt;/b&gt;" style="rounded=1;whiteSpace=wrap;html=1;fillColor=#f8cecc;strokeColor=#b85450;fontSize=13;" parent="1" vertex="1">
          <mxGeometry x="370" y="370" width="80" height="60" as="geometry" />
        </mxCell>
        <mxCell id="TXXqWg1TCEIOcqlLvXfd-44" value="" style="endArrow=none;dashed=1;html=1;fontSize=12;exitX=1;exitY=0.5;exitDx=0;exitDy=0;" parent="1" source="TXXqWg1TCEIOcqlLvXfd-34" edge="1">
          <mxGeometry width="50" height="50" relative="1" as="geometry">
            <mxPoint x="470" y="380" as="sourcePoint" />
            <mxPoint x="520" y="330" as="targetPoint" />
          </mxGeometry>
        </mxCell>
        <mxCell id="TXXqWg1TCEIOcqlLvXfd-45" value="" style="endArrow=none;dashed=1;html=1;fontSize=12;exitX=1;exitY=0.5;exitDx=0;exitDy=0;" parent="1" edge="1">
          <mxGeometry width="50" height="50" relative="1" as="geometry">
            <mxPoint x="450" y="399.5" as="sourcePoint" />
            <mxPoint x="520" y="399.5" as="targetPoint" />
          </mxGeometry>
        </mxCell>
        <mxCell id="TXXqWg1TCEIOcqlLvXfd-51" style="edgeStyle=orthogonalEdgeStyle;rounded=0;orthogonalLoop=1;jettySize=auto;html=1;exitX=1;exitY=0.5;exitDx=0;exitDy=0;fontSize=12;" parent="1" source="TXXqWg1TCEIOcqlLvXfd-46" target="TXXqWg1TCEIOcqlLvXfd-20" edge="1">
          <mxGeometry relative="1" as="geometry" />
        </mxCell>
        <mxCell id="TXXqWg1TCEIOcqlLvXfd-46" value="&lt;b&gt;Pass&lt;/b&gt;" style="rounded=1;whiteSpace=wrap;html=1;fillColor=#f8cecc;strokeColor=#b85450;fontSize=13;" parent="1" vertex="1">
          <mxGeometry x="610" y="350" width="80" height="60" as="geometry" />
        </mxCell>
        <mxCell id="hgABfcgXAws2KzfmDghC-1" value="Nexus Repo Push Artifacts&#xa;" style="swimlane;startSize=20;horizontal=0;childLayout=treeLayout;horizontalTree=1;resizable=0;containerType=tree;fontColor=#FFFFFF;labelBackgroundColor=#990000;fillColor=#990000;" parent="1" vertex="1">
          <mxGeometry x="470" y="580" width="310" height="160" as="geometry" />
        </mxCell>
        <mxCell id="hgABfcgXAws2KzfmDghC-2" value="Jenkins-CICD" style="whiteSpace=wrap;html=1;fillColor=#dae8fc;strokeColor=#6c8ebf;" parent="hgABfcgXAws2KzfmDghC-1" vertex="1">
          <mxGeometry x="40" y="60" width="100" height="40" as="geometry" />
        </mxCell>
        <mxCell id="hgABfcgXAws2KzfmDghC-3" value="Deployment" style="whiteSpace=wrap;html=1;fillColor=#fff2cc;strokeColor=#d6b656;" parent="hgABfcgXAws2KzfmDghC-1" vertex="1">
          <mxGeometry x="190" y="20" width="100" height="40" as="geometry" />
        </mxCell>
        <mxCell id="hgABfcgXAws2KzfmDghC-4" value="" style="edgeStyle=elbowEdgeStyle;elbow=horizontal;html=1;rounded=0;" parent="hgABfcgXAws2KzfmDghC-1" source="hgABfcgXAws2KzfmDghC-2" target="hgABfcgXAws2KzfmDghC-3" edge="1">
          <mxGeometry relative="1" as="geometry" />
        </mxCell>
        <mxCell id="hgABfcgXAws2KzfmDghC-5" value="Service" style="whiteSpace=wrap;html=1;fillColor=#fff2cc;strokeColor=#d6b656;" parent="hgABfcgXAws2KzfmDghC-1" vertex="1">
          <mxGeometry x="190" y="100" width="100" height="40" as="geometry" />
        </mxCell>
        <mxCell id="hgABfcgXAws2KzfmDghC-6" value="" style="edgeStyle=elbowEdgeStyle;elbow=horizontal;html=1;rounded=0;" parent="hgABfcgXAws2KzfmDghC-1" source="hgABfcgXAws2KzfmDghC-2" target="hgABfcgXAws2KzfmDghC-5" edge="1">
          <mxGeometry relative="1" as="geometry" />
        </mxCell>
        <mxCell id="UDHfY4Efi8n6eLUTuYqm-1" value="Build Process" style="swimlane;startSize=20;horizontal=1;childLayout=treeLayout;horizontalTree=0;resizable=0;containerType=tree;fontColor=#FFFFFF;labelBackgroundColor=#990000;fillColor=#990000;" parent="1" vertex="1">
          <mxGeometry x="90" y="530" width="280" height="240" as="geometry" />
        </mxCell>
        <mxCell id="UDHfY4Efi8n6eLUTuYqm-2" value="&lt;b&gt;Use Latest Image via Jenkins and clone src code inside container(Jenkins will handle start, stop&amp;nbsp;,remove containers)&lt;br&gt;&lt;br&gt;&lt;/b&gt;" style="whiteSpace=wrap;html=1;fillColor=#dae8fc;strokeColor=#6c8ebf;" parent="UDHfY4Efi8n6eLUTuYqm-1" vertex="1">
          <mxGeometry x="47.5" y="40" width="185" height="90" as="geometry" />
        </mxCell>
        <mxCell id="UDHfY4Efi8n6eLUTuYqm-3" value="Deployment" style="whiteSpace=wrap;html=1;fillColor=#fff2cc;strokeColor=#d6b656;" parent="UDHfY4Efi8n6eLUTuYqm-1" vertex="1">
          <mxGeometry x="20" y="180" width="100" height="40" as="geometry" />
        </mxCell>
        <mxCell id="UDHfY4Efi8n6eLUTuYqm-4" value="" style="edgeStyle=elbowEdgeStyle;elbow=vertical;html=1;rounded=0;" parent="UDHfY4Efi8n6eLUTuYqm-1" source="UDHfY4Efi8n6eLUTuYqm-2" target="UDHfY4Efi8n6eLUTuYqm-3" edge="1">
          <mxGeometry relative="1" as="geometry" />
        </mxCell>
        <mxCell id="UDHfY4Efi8n6eLUTuYqm-5" value="Service" style="whiteSpace=wrap;html=1;fillColor=#fff2cc;strokeColor=#d6b656;" parent="UDHfY4Efi8n6eLUTuYqm-1" vertex="1">
          <mxGeometry x="160" y="180" width="100" height="40" as="geometry" />
        </mxCell>
        <mxCell id="UDHfY4Efi8n6eLUTuYqm-6" value="" style="edgeStyle=elbowEdgeStyle;elbow=vertical;html=1;rounded=0;" parent="UDHfY4Efi8n6eLUTuYqm-1" source="UDHfY4Efi8n6eLUTuYqm-2" target="UDHfY4Efi8n6eLUTuYqm-5" edge="1">
          <mxGeometry relative="1" as="geometry" />
        </mxCell>
        <mxCell id="UDHfY4Efi8n6eLUTuYqm-8" value="" style="shape=singleArrow;whiteSpace=wrap;html=1;fillColor=#F8CECC;" parent="1" vertex="1">
          <mxGeometry x="370" y="630" width="100" height="60" as="geometry" />
        </mxCell>
      </root>
    </mxGraphModel>
  </diagram>
  <diagram id="9pV6-z7CMk7I3L78Z02f" name="Page-2">
    <mxGraphModel dx="1102" dy="622" grid="1" gridSize="10" guides="1" tooltips="1" connect="1" arrows="1" fold="1" page="1" pageScale="1" pageWidth="850" pageHeight="1100" math="0" shadow="0">
      <root>
        <mxCell id="CVndLo0PHLI1p5Sf6Zgg-0" />
        <mxCell id="CVndLo0PHLI1p5Sf6Zgg-1" parent="CVndLo0PHLI1p5Sf6Zgg-0" />
        <mxCell id="HX7PPoZN8i2_heI7QN7X-8" style="edgeStyle=orthogonalEdgeStyle;rounded=0;orthogonalLoop=1;jettySize=auto;html=1;exitX=1;exitY=0.5;exitDx=0;exitDy=0;" parent="CVndLo0PHLI1p5Sf6Zgg-1" source="HX7PPoZN8i2_heI7QN7X-9" target="HX7PPoZN8i2_heI7QN7X-11" edge="1">
          <mxGeometry relative="1" as="geometry" />
        </mxCell>
        <mxCell id="HX7PPoZN8i2_heI7QN7X-9" value="Builder&lt;span style=&quot;white-space: pre ; font-size: 18px&quot;&gt; &lt;/span&gt;" style="rounded=0;whiteSpace=wrap;html=1;fillColor=#d5e8d4;strokeColor=#82b366;fontStyle=1;fontSize=18;" parent="CVndLo0PHLI1p5Sf6Zgg-1" vertex="1">
          <mxGeometry x="50" y="60" width="120" height="60" as="geometry" />
        </mxCell>
        <mxCell id="HX7PPoZN8i2_heI7QN7X-10" style="edgeStyle=orthogonalEdgeStyle;rounded=0;orthogonalLoop=1;jettySize=auto;html=1;exitX=1;exitY=0.5;exitDx=0;exitDy=0;entryX=0;entryY=0.5;entryDx=0;entryDy=0;" parent="CVndLo0PHLI1p5Sf6Zgg-1" source="HX7PPoZN8i2_heI7QN7X-11" target="HX7PPoZN8i2_heI7QN7X-12" edge="1">
          <mxGeometry relative="1" as="geometry" />
        </mxCell>
        <mxCell id="HX7PPoZN8i2_heI7QN7X-11" value="Build OCI Image" style="rounded=0;whiteSpace=wrap;html=1;fillColor=#d5e8d4;strokeColor=#82b366;fontStyle=1;fontSize=18;" parent="CVndLo0PHLI1p5Sf6Zgg-1" vertex="1">
          <mxGeometry x="365" y="150" width="120" height="60" as="geometry" />
        </mxCell>
        <mxCell id="HX7PPoZN8i2_heI7QN7X-12" value="Build Code? Mount?" style="rounded=0;whiteSpace=wrap;html=1;fillColor=#d5e8d4;strokeColor=#82b366;fontStyle=1;fontSize=18;" parent="CVndLo0PHLI1p5Sf6Zgg-1" vertex="1">
          <mxGeometry x="640" y="300" width="120" height="60" as="geometry" />
        </mxCell>
      </root>
    </mxGraphModel>
  </diagram>
  <diagram id="CjKcut3TyImJist8Iu_o" name="Page-3">
    <mxGraphModel dx="1102" dy="622" grid="1" gridSize="10" guides="1" tooltips="1" connect="1" arrows="1" fold="1" page="1" pageScale="1" pageWidth="850" pageHeight="1100" math="0" shadow="0">
      <root>
        <mxCell id="0" />
        <mxCell id="1" parent="0" />
        <mxCell id="t-v4wwdIZI-bJt02-WVd-2" value="" style="shape=ext;double=1;rounded=1;whiteSpace=wrap;html=1;dashed=1;sketch=1;" vertex="1" parent="1">
          <mxGeometry x="210" y="320" width="570" height="330" as="geometry" />
        </mxCell>
        <mxCell id="t-v4wwdIZI-bJt02-WVd-8" value="" style="shape=umlActor;verticalLabelPosition=bottom;verticalAlign=top;html=1;outlineConnect=0;rounded=1;dashed=1;sketch=1;fillColor=#ffe6cc;strokeColor=#d79b00;" vertex="1" parent="1">
          <mxGeometry x="50" y="530" width="30" height="60" as="geometry" />
        </mxCell>
        <mxCell id="t-v4wwdIZI-bJt02-WVd-20" value="" style="shape=umlActor;verticalLabelPosition=bottom;verticalAlign=top;html=1;outlineConnect=0;rounded=1;dashed=1;sketch=1;fillColor=#ffe6cc;strokeColor=#d79b00;" vertex="1" parent="1">
          <mxGeometry x="50" y="240" width="30" height="60" as="geometry" />
        </mxCell>
        <mxCell id="t-v4wwdIZI-bJt02-WVd-21" value="" style="shape=umlActor;verticalLabelPosition=bottom;verticalAlign=top;html=1;outlineConnect=0;rounded=1;dashed=1;sketch=1;fillColor=#ffe6cc;strokeColor=#d79b00;" vertex="1" parent="1">
          <mxGeometry x="50" y="430" width="30" height="60" as="geometry" />
        </mxCell>
        <mxCell id="t-v4wwdIZI-bJt02-WVd-22" value="" style="shape=umlActor;verticalLabelPosition=bottom;verticalAlign=top;html=1;outlineConnect=0;rounded=1;dashed=1;sketch=1;fillColor=#ffe6cc;strokeColor=#d79b00;" vertex="1" parent="1">
          <mxGeometry x="50" y="330" width="30" height="60" as="geometry" />
        </mxCell>
        <mxCell id="t-v4wwdIZI-bJt02-WVd-25" value="" style="endArrow=none;html=1;rounded=0;" edge="1" parent="1" source="t-v4wwdIZI-bJt02-WVd-2" target="t-v4wwdIZI-bJt02-WVd-20">
          <mxGeometry width="50" height="50" relative="1" as="geometry">
            <mxPoint x="200" y="360" as="sourcePoint" />
            <mxPoint x="450" y="400" as="targetPoint" />
          </mxGeometry>
        </mxCell>
        <mxCell id="TNzRQn8XYRnPUrtMB-Mf-2" value="" style="shape=image;verticalLabelPosition=bottom;labelBackgroundColor=default;verticalAlign=top;aspect=fixed;imageAspect=0;image=data:image/png,iVBORw0KGgoAAAANSUhEUgAAAFoAAABlCAYAAADNhPR6AAAgAElEQVR4nO2deZwdVZn3v+dU1V16TXrJ2kvWTkInnUBIgCSICasBjGECwyIIKKgZBdQXFUUGnc84MzooyotK2EZBx4UIgYSRQCCQlSxk3zp7b+nupNfbd6tbdc77R917093pYOgsNvP6fD7Vt++9Vafq/Oqp5zzP73nOuUJrrfm7nHWRf+sL+P9F/g70OZITgE5Zkt5YFK11ejuborVGKXVWz9HTOU+nX12A7txQqmGl1Ec6wbky+edyaDkTytMFaCHE8S+kRAiRfj2Vi+ncztnQ7M7tGYZxyvv29hyp96n+n1GNdl2XRCLB2rVrWbx4Mdu3b8d13fT33QFMvXddF8dxANi+fTtHjhxBCNHl2O7n6unCO5/jZGYsHo+zZ88eOjo6Tjg29QR+lBvdU58SiUT6dePGjUQikR6v5VTlBBstpeTdd99l8eLFNDY2Ul9fj23b6ZN01u6UnRRCUFVVxauLXkUrzfbtO6iurk631xNwQogTNKU7yJ2P6WyTI5EIb7zxBo2NjenvlFIIIaisrGTNmjXpc3Q2ganNdV1c1z3h89RNEkKwatUqdu7ciVKKvXv3Eo1G033p6Zr/mpjdP1BK8cEHH3DLLbdQXl6e7uDSpUupq6tj+PDhTJkyhbVr11BbW0dGRhbXzp7Ntq07WLDgGUpLhzNx4vkEAhbvvvsuDQ0NxONxZs+eTSQSwbZtiouLWb9+PRMnTqSuro7169eTmZnJZZddRk1NDQMGDMA0Tfbv38/YsWNZsWIFABdffDH5+flIKdOdfuWVV4jFYjiOw6c//WkWLlzI5s2beeyxx7AsizfffJPc3FxmzpxJbW0ty5cvJxKJcPXVV3Ps2DGqq6uZNGkSgUCAdevWEQwGufLKK3n99ddxHIevfOUrjBgxguzsbHbs2MG6desoLCxkxowZVFdXs337dhzHYcaMGQwfPrxHhewRaMdxsCyLfv36obVGSsm2bdvYtGkTI0aMYPHixeTk5PDCCy8yffp0qqoOU1DQn2CGn+KSwQQzLFaveY+xY8bx4osvMmrUKIQQbN68GdM0aWlpYdCgQSxevJj+/fvz9ttvk5+fz7Zt2wBob29nwoQJ+Hw+1qxZQzAYZM2aNVx77bUEAoG0MliWhdaal156iUsuuYTa2lrKysoYPHgwra2tGIbBq6++iuu6tLS0sHr1apqamgCorKxk6tSpLF26FMdxuPDCC4nFYmRlZbF69WpGjx5NXl4ewWAQ0zRZtWoVubm5vPbaaxQXF7N582YMw2DTpk1EIhEKCgpYvnx5GuiexrQTBsOUXUokEukDtm3bxsSJE7nxxhspLy/nyJEjTJ48mdtuu5XzL5hIS2sTQ4cOYuy4MYwePRqB9xiPHj2aW265henTpxMOh9OaKITA5/PR1NREW1sbt9xyC1dccQXNzc2YpollWUgpMQyDgoICBgwYwIEDBwiHw2mNcRwHx3EoLi7m5ptvZtq0aYRCIcaPH8/UqVMpKChg7969BINB/H4/zc3NdHR0MHz4cMrLyxk8eDDZ2dnMmzePcePG4TgO0WiUeDxOc3Mz48aNY/LkyRQUFABQW1tLKBTitttuY9q0aTQ2NlJaWspNN93EVVdddcI49qFAa63x+/1kZ2ezevVqGhsbqaysJCsri8rKPVRXV1NVVUVBQQFSSmw7gZvQaCVwHE1rS4hwOIpSEtu20zfLcRy01mRmZlJbW8u+ffuor68nMzOTUCjE4cOH2bp1KxkZGUgpqayspLKykoaGBgYOHMitt95KXV0dmzZtSitEqs2UbU0kEgAkEgmOHj2KbdsUFhZSXFzM7Nmzueaaa7BtmxUrVlBRUcGwYcOwbTttGp977jn69etHbm4uSimi0ShNTU1Eo1Fc1yUzM5OWlhYOHjxIdXU1gUAA13WxbTutQCfTZgDj0UcffbS7VpeWlrJ37162bNlCdnY2l1xyCTU1daxft55LL53BmDFjEEBxSSmG8BEMZjJq1Eiqq2tJJBKUlJSQl9ef7OxsSkpK8Pl8BAIBysrK2L17N42NjeTn5zNt2jQKCwtZtmwZpaWlXH755eTn57N27VqklJSWlpKdnc2SJUsoKChgxowZZGRkpG9iaWkptm1TVlaGlJLc3FxKSkrYu3cv2dnZXHDBBWzbto0dO3YwaNAg9u/fT1tbWxqo/Px8hg4dSn5+PpZlcejQIfLy8igvL2fo0KFs3749Df6ECRMoLCzkrbfeYtCgQcyaNQsg/WQAlJSUdMGxC67dSaXU23g8TjQaJTs7G9M0iccTtLe1kte/v9eIUtiOQ83haqprDjNwcCEDBw0kGMzAMn1oYXQZtFzXxefzEYlESCQSafsH0NraSmZmJn6/H6UUkUgEwzCwLAulFKFQiEAgQGZmZhfT4T1VNn6/P33dUkrC4TCGYRAMBmlvbyeRSGDbNs899xzXXntt2vbfcccduK6LYRhorWlvbycYDOLz+QDo6OjA7/en+yGlpKWlhYyMDAKBAI7jpL0n13WxLKtHbf5QoE/2CDiuwpSC2sMH+NPvf0tWhsGUKZM5duwYtXVHmXXlHIpKR6CERkpxgjuUesS6BzgnO3f3gCE1jnR/7S7dXUjXdVm3bh2bN2+mqKgo7cF03udkkrK7qf16Ovdfa+MEoD/kdLh4jR0+sJ+Fv32O8WXDqRg/DOHa5ObkULm/jg3bqrjt7vkEs4II+dcjyjMhPXWhe8dTT1UkEkmbsp7csLMlp8jeaTQaBURdxRtvvkljfS2lQws5XFlJuLkRIxFiaEEmWUGorjpw1kHuPBD2JN0/TwU0OTk55xxk6MGP7izpxx5QCCyhaG48wp6dOzBcl6ApyB9eQpYQNDW0YGdkMmzsMKLxFhQgXBACHOmF5qY24TT61tl1Spmgzt+lHmUpZZcoD07kRs4lyPBXgE6JJulStTXx6rNP0XroANm5fjAl2VmZ7PxgC4GsTI40HKO9Pc7Rmg2MLC0jO28gHi6K00K4kwgh0pRAaoDtHOYLIYjH4+kBra/IKZmOlBZt+8tfqH9nGbdeNIU5l89E+gzsuM2I0aMZOnwE2YFMMsI2zes2s2nx6wAkAIHEBLSAUEcHK1esYPny5bz99tvU1NScwIOkHvvuNG3q8V+/fj333nsvjzzyCOFwuMsgtXDhQu655x727NnThevoThp1fu1MRJ0t+VCgtdZpPXQjUQ4sf5dxcRtnyxZKs7PICAYxhMAVBlt2VVJ1oIpoVR2FrWHqVq3GbW3DlR7QaIHC08KXX3mF6667jkceeYTm5uYTgO6JuIHj5mLUqFHs2rWLt99+O63FhuG5kwcOHGDNmjXpcFsI0aMd73wDzoUZ6ZH418kNvIdeSklH/VGsxmOM0hLn4CF2rllDwrZpi0RoamtjzcaNmIaFL+rQX5okjjVxrOoQUoDWwgNaKfrl5nLTTTehteaiiy6ioqIiHenV19fT3t6OYRgkEgkikQiO4+C6Lm1tbcTjcYB0xGcYBq7rEovFaG9vJxaLcdddd7FkyRImT55MLBZLh+2JRIK2trY0ldv5nK2trWmf+GxJ2ka7rjdyCSHQaNAakfJ5gY6OEGZbBCvu4gb8fLDvEOMSJo3HGinx9Wfi+PG0N7VzqPYIWYMHUBsOc/6xBgYCcQGullj6+LlSmua6LqFQiKeffppEIkFtbS3XXnstFRUV/PznPycUCnHhhRfy9ttvEwwGeeSRRygpKUnTnLZt8+yzz9Lc3MxNN93Eyy+/TE1NDffccw+O47BgwQLKysooKipi0aJFXHTRRXz961+npaWFBQsWkJWVRTQaZcKECcyZM+esAZ3WaNd14SQ2SgKGk6DV72NbMMhqTLaGDf7w6iqq3tvCa//+FHXLt7Dod4sI9x9A/cgRHMrPY+nWHaxavY5oRxRXONhG1yRAKtp64okneOKJJ7j22muJRqN87Wtfw+/3I4Tg6aefRkrJZZddxm9+8xvefPPNdBuWZREOh0kkElx33XVUVFTQr18/XnjhBerq6igrK2Pjxo386U9/oqysjMLCQh599FF27drFwoULefLJJ5kyZQqzZ89OE/1nHehQKHScGEEgRFfz7fdZNFomK0IxDuYV0ZRbxNI1u9i8fDvZ0SC739vKiAGjyexfQtaIcsSw0RzFz0uLl/LiC/9NS3MLR5sbCUfDXSKraDTKokWLcByHNWvWkJWVxcSJE1FKkZubS15eHjNmzGDq1KlkZ2fT1taWvkkdHR088MADxONxZsyYgWmaFBcXpz2O7Oxs8vLyGDlyJDNmzGD8+PFpEzJgwADa2tr4zGc+w4IFC5g4ceK5MR1ZWVmc7H5qNNlDB2H1LyR+JEyT8tPsgs+y2OPPJCOQxbCLrsTNzSHSITiwfT8RN8aA0RXsbGhGBLJoqW/l0e9+i7LzxnH1NdcghEjToQDBYJCrr76aO++8EyEEfr8/TT2mTA2Q5kcMwyAcDqcTB1dddRUzZsxID3wpmrWz15Jqw3EcZs2axSOPPMIf//hHnnrqKVzX5Re/+MWH8hWnI2m19fv9COhxA/Dl5DCgbBj4XHKFS5aTwDIFhw3YnZ9B8+ACapw472xYSdPhfQzNyWXruve5cNIEpk27GBd4f/0HRKIRDh8+jGmanH/++QQCAWbNmkVDQz3vv7+WWDzK8uXvUFtXg9YK27aJx+PpQTEWi5FIJGhvbycvL48f/vCHOI7Dgw8+SFNTU5q0CofDxOPx9OY4Ttr/jsVivPjii8ycOZPVq1dz2WWXceTIkS5u5ZmWNE2a8lGFECcArTVoaTC4qJAVq1dxLBTDkT7i8RgFGX5i2mHfvgPs2ryN3IwAN33605RPquCz/ziXqRdMoCA3k4KC/vQvzKelqYlly5Yxf/58br75ZoQQTJkyhUgkyh//8Ac+2LSJsrIxDB48mBUrVuD3BygtLaW5uZnm5mYyMjKIRqMcOnSIjIwMrrzySkpLS6mvrycUClFbW0t2djZZWVmYpsnevXspKCigsLCQyspKfD4fRUVFmKbJypUrOXToEIlEgvvuu+9DU1GnK2lSSSl1QlibEkdr4kCmTrB2zXr++fFnOBpzmX7xZB645QZy+uWwu7KS//yPHzFvzme48TNzqazaR2ZWFiNHDEcrhXZdtIa6hgYAhgwZko7ohBC4jktj41EMQ9JQ30BraysTJkwgkBFIa1jK0+jMuBmGkaRx42nXzTTNLvSnaZppajVlTizLIhqN0tLSQn5+Prm5uV2OOdNAp230hzUshfB2FAajKyqQAT/RpiPk+iUjSoYgTINo8RBijs2u/ftYtPQvZGVbTJo4KdU6UpogBMXFxel2O/MRpmUyaFAhi/78Mg8//DChjhC3334733jwm+Tl53exvT1Jb2xrIBCgf//+6fcpPuRsDIrpq/6wxgVgoUA7ZGdm8IU7P8vIwYXU7N5Ge6jFayjoZ1T5WNrsKHtrqhhbPp4BgwajEGgESInWoltERlo7d2zdyJfvvZsHH7yfOXM+xfce/ibL33mDOXOu57XXXsN13SRZ5DGJHzc5IZXVk3i2WoAwkAjGDi9h5iUXkRn0EQj6KSwciNSShK0QAmbO+gQVZWORyaFUSOGBKgEUCA1CI4RBLNbB088s4KGHHiIWDfOdh/8PN867jvLzRjHtogupO1LNU089xd49+xhdNo6CgjwgRQ2cWwbudOSkxP/J7JTWx6PG+vojrFyxnPPOqyAcS7B02Tsoqbn99lsZNnDQCVyC978GAUq5bNmyiZ/97HHWrl3LTfNuYN4N11NUNJB4rAOUxjJ92I7g9b8s4/nnf4dh+Pni/C8zd+4cMjOzTzm70RfkI2RYjksKQNd12L5tM/WNzbS1R3hr+bucf+H53HHHbWQaJrITwJ2jwVgsyosv/hc//dlj5GRn8e2HHuTSiy/CScRJ2GGMFBHlCrThx+cP0Hi0iSd/8SsWvfY6c+f+Aw9+8yGKior/qu3uK3JaQHs5QRchTNrawyx+401GjRlFRUU5Ad11/xQQO3bs4vHHf8LqNe9x+RWX8rm7PkvR0MG4kQQSjcBBAFKbaFfiaBcMjeW3UBreWLqcBU/9GlcYfHn+fObNm0cwWVjTl6XXQHthtEpunhU3DIkDuErhE6CUTlektrW1s2TJ6/zfn/8En0/ywNfuY8all6CUjW3H8AsLA4HrOskxQaKVRAkXYWhclcC0fGRk5LBvfxXPPPsi77zzLp+cNYuvfPWrjBkztsu1df//by29AvpURCkXEAgp2bplKz/96eMsW/YWN8+7mvvv+wr9+vUjGo2m/QepHYTWJ4xvWiQzPKQ4L49MCvhzeeut5fzHjx/DceFL87/KnLk30K9fTpex4X830MkWYzGb3//+d/zw335ASelQvve9bzOp/DycRMLbpdOpDVSPPoTqDrzWSCFxtYM/kEGoPcaTTz7Db3/7J6ZOmc7Djz5MxaTxncxb37DdZwzoVPCRqq3btX0Pv/rlL/jLG4uZfd0V3Hffl8jLy8GJu56rSLfC8pNchhbQWc3TPrThorXCEH6E9rN61QZ+/O8/ISHhm9/9FrM/NfuUi+jPhZw20N0f00gkwp8X/pmf/Og/CAR8fPfhbzNz1qXE7Qi2HcOSnSK4TiAYqmevuLtGpz+XLkorhBJIbZLhzyQWifPVbz5EfVMzi197Dcuy+gzQp5QF/zDp7Mvu27eX73//+6xY8R733n0Ld999J7k5OUQiIS+6NCzPB08nU4+3I4RBCurOkZ+hBaDQwkULicZEawutXVAJhNBYFggzSjjewNBBWbS0HCVVVqLx4qO/dWzTK6BT+TXv0ZREo1Gee/YZfvr4Y4wqG87zv36Kiy6oQLkuCSeBaRheWkx3C587P0tSQk/xnhbeHZGgtBcTai2QwkIaEr+p6GhtYP+hSlqbjxBpOwraC/zpI9oMp6HRKXNxcF81P/nJf/Lakpe57bYb+fL8L5Cf3w87HEdKA3SSUEKDkF1A7AJ6p4yO6LSXkqAxAMNzJZVGE8c0TYKW5GhdNQd3b8EONxE0XHzSU9+0p9LbDp5h6RXQhmFgJxI8t2ABT/z05wwdMojnn1nA1IsnI6UmEYthmj60+nCt6vyVTr/pDL9IoiWQWmIApk/j8xl0hI6ws3IPbccacRIdSMPFxUkSM33HrUtJr4Cuqanh+48+yuqVK7n15nncededDCgswE7YOI5CCgulNFIIL5TuJCfVMJH2qI/vJzSmAOWA1JKAz4dyYxytqab2yDYiHcdQykWaLgqwtZEuxOxr0iugl7y2mHfeeIPnnn6KT8z8BI5jk0jY3pQKmeIejjfdWbkUPc8PNHFASxQmSggQyQFQJ5BS4zckiXiY+tpDNDfV4sRjBKQfx42gtMLVYGAihEQLjRLHbX1fUO5eAb1y5UrGjBlJaekglBsFNIYBWhjopPcgdQrQ7jrcc6+FNgGJxEAg0MIzO9KwMASEWo5xtPYwsVATpo6ipMZV2gP2xICyz0mvgLYsC39AUl29l1ismTHjylEYKGHiInEVyQolb//OGnXSOE0YaJU0NcrFkAIpBbF4lKNNDbQ116PsEMKIoZXt0a2kLHpfh7mXqxuMHTuGuiM1uCpMS1MdB/fvRmvPTjpKoA0fjgZXe+W+CpneTiauSu6rk3V0aCLhdpqqq4kca8RUNlIoHCS28KOF2ecGvA+TXgGthSIaDbN27VosU1J1eD+7d25BqDgBy8BUYAo/pvQhhWc30wSP8Igm79XbPJ00sEyLQMBEqRhNTUc42ngEOx7CMHTy8Ujm5Tsxh2jpdSMZ2NBHNbxXQDuOzciRIyktGU4sEmPIwELCbUfZtWUd0ZZG/MJBCgMhTJAGGs92K+EFOEJ6m8bLbwkp8VkmpgHxWIjW1kbCkTZvMocl0AZomSRPtULqBAiH4/Y/XRhB3/Gcu0qvgBYIHNdh/IQJDBwwEAEMLMhDxcPs3rKOo7X7UTqKZWksUyIMiTB9YPhBirR2G4bENM1kOUCcSKSFUHsTCTuGIcDAs+9KddLmj6n0OjIUQEeog7qWEKXDijCFweDBg4lFbA7t20mg4QhDS4bRf8AQfNKPKySmYSKUkeY7DMNAK0UsFiMebSZhx1COg9AOQiuPnz5ZzKNTV/HxAP8jaLQ3WQiAJEgHDx/m/3znX/j1f7+MMnzYWmIFMxg5ehR5mYLDezaxff0KGqr340ZDGMrBkBLD8Dbbtuno6CAUCuEkYkjhIqU3fHo53L5pBnojp6bRGtAiGYxItDbBkYwdNYwZ0y/mmed/hxHM5I7bbyXDkiS0IjN/MCMHDKXx6DGqqiqprt5LVlYOQ4vHkptfgB3uoKOjHVBIpRDaQCARWqBx0dLBVR9SwSHSF3YGYDj70ivTIfCCBNM0uPeLt4MJj//0CfbsquSfvnQvY0ePTvLIkkFDiikuHYmdSHCssYHW5iZ8pkk4HEJpJ+lv6zReqXTV/zbpFdDe/D4X13XwZ/j5+tfmUzy0hJ27DtB4rI1QZCflZSMYMmSwtwpBAnxWBoOHDEcgiUbD2Ik4UqZyggqhJCI5n1EgvGgvrbU9yMfMRvdOo5O+sGEYbN68lYL+g7n9ltvI6T8Af04Wazeu519/+GOmT5/ONdd8isIBhd4SQvE4lqmTPrCb5Ja9WYweVw2pyaP/2+TUBsO00iSHQ63QyiW3X38GDhzGwoWvUV1djd8nMaTD1Asr0IbJ/K/cz+fuuotnn3uexqPHMCzLI4BwUDqB1gm0dtBKoRQo1XPY3pN0vxUpa50iAdMOYR+5Z6fudQid9gIECi00rlYUl5RxrKWdf/vxj3j1tVdoOXIEpy3El+Z/gTvuvp3KA3u5/xtf4/P3foHa+hqEKVHaQZHAdWO4ro1yHLTSSX9Zd4kiT349SbMj0mM1WoD0yvrSucaPH9CdD5ISgSAWjVLQvx93fe5OOkJhHnvsZzzx5DMcqmqgfNx5/Ou/fJ8//P53/PP3vssF50/EMi0vH5XatEYojdAajafhSrudsuMfHxv816RXNlrjlYPFYlFam2qZeuEEvjL/izz36xf548KX2b57LzfNm8snLruM8ydMZPL5FxCPxUnYNq6TrERSOq2wQoPCq/VQ6nhJ7ylfT5ckb9+8Mb2LDDVJHtglHG5ASJtpMyYTzMnipT8vYfm7K6nctZ1PvPsu11xzDVOmTCE7OzsNcEqjFS5Ca5TWKCNxnBdKzgrTp7kqZl+C/CMALUhbGgGudjAM4ZmQSBQh/FwwYQIF/QcwdtRo3lu5kvdWrWTj5k2cN+485t4wl+nTpmFZoLSDq5MZGS0RWuIq1yP7OZ4L171AyiP5BIYwkoNj32DzTqOuI+WGSaQ0cRIOjhFn1PBSiouKmH7pDDZ+sJENGzZSubeSRYsWcf75k8jwBVHK9XJ9Qqc9Ba1TFGfyb9r7OPXRTANSCtrb21i7fi3SMUi0R/jkNbN6380zJKdFKoE3z9vzFRR2IoYb1mTn5DJp4gRGjRzO1VdeQWXlXjZs2IBr22gdQGuF0jpJGqkkqMeB7poeP4Vr0cddOyEkofYONm/ehHQMBuTm97aLZ1R6X9eR/k+glUrOR1FAgkikDdeVBP1+couLkGgOHtiHY8eTUaVGuW7SZZQIlaKsOnsbnc4kTpFrTs4kKCoayhfv+SKWsPqMe3faJWGQgkCjhQKhkBKU6xAJJ3ASPjKCAaZMnozf7/OCE9fFVanZsMnsiToOZJeFrU6yZNDJ8NOA0gqllVfkpOAkifdzKqcOtIDUFQttJEcdFy0UWihc5WIIHz4rAEhcx0EKz9dGa0aPGolt22jX9QZB5XoZXJIeiOxZYz3QvTkzSghcKXCSQQnJV2+GgDdUu8nsuZEcSZXRN5Z97x3X0aXmWCM0mEhIaBpajpLTL4+MoDfxXSR9bjtpNjRerk8p5c1xSQKmu9flpc6VHBmV7hSffwylVze76vDhZIgMXn2nwBIm+w4c4olnnuOVZcuQhkSpBEo5KOUAbtKGp8B2UV02xyOaum1KK1ylkuVlZ7bz51J6BfSx5DI6aI10FVJrlIbVmzYxZOJ4NjXUsm7D+5imgcajVLVOAkwSxO6vJ9tUpzWRPr4K3TugJ1ZUdOq4B58yBSLow7UkZjDAwbpaz+5qB6ETCJ1AOwkUydkBrgvaRSsHVzik6bvum3YRyk3nEKXWnv3tRiop4TmIhhbJkP7jyt51PshIFo0LcA1ICIWSMG3qFA5u20Htzt0MGzmShPLoUJQNSROitPZWS1AKXBelHFzleMD3uCVAecnaZIFCMsA5fj2pCLIze5f6rK8A3TtSSSV9XimxhSZoGgjXYXRRMV+48SZaO8KMGTmKRMzGUJ6bpbTGhSTQKjkhVKGF8ChN1fNkoeO6oPsOar2Q3nsdGs9GC+kxca4LsSjjSosRlo9QRxTXtZGGF4q4KBy8Y1IMnefrJoFOVel3F+3VkQiZWgOPZLGSSNdB96WC85PJaUWGAoGpBNLRmNLjJWLRMCoWRepkCa1yUFIn6+qOH+26LtLo3mJPfrRCI5Phel+H8+TyEYDWKBQSw/NppUiWvQmEaWELiSUNtHIRwiWV9lI6OTKhMbRGa4mrhBeGy2QUJ9XJTUdywPU4J+/2am2gkckJRA4IB4GL1AJXenXVpnYAH1r2Da+wdzZae6Gx4zhs37WbkcPHUDR0OLbtLTXv2XBv5qx3wPEDvcJEhVYK1/GoUaUEKP1XbHTynfTmwRjJBK9I2XsEhvBhGD7v+rTsUyald7V3yR6Ypoll+Fj21jvU1NRiWT609mqclUquMap1MvnqLSYolALluXWey5Ys/UoFMt224/t4G8oF5ZJcbgVvITE/hpFDXWOYzVsqCQayUKqzqfrbSy9ttFeB4TgOI0eOJuDP5X/+5w0+edlMSocVkwrivLC664/OoN00WKT5DXXSEoPO66N675OvQuJoCyyLWMxlx46D/Pa3fxNobxYAAAXZSURBVCaQWcjX7v4ihjg7y6r1Vj4S0Mc7nPQ2MHl//Qays/pz7ezrefnlVygpLeLyy2fi83kLSHX5SSWVivA8LU9/LiTieGVfV9GpBK0Cpb0ARQuUYWL4M6iva+LXv/kj6zbs4sabb+F73/sB+QMGenz3aQBzpuXUTYcmDYZEIbXElD5mTL+UjlCYjRs3cvvtdxDwB/jlL3/J1q3biccTGIaF1qnJQ0mTknTxlJt8Tf6ve9gSyvtdAe06KJXAUQplWrjC4O3la/nmt35EeyTI8y++xI8f/xl5Awu9aqdktUJfAbvXpkMpTcK2OXBwHxUTK/hg41ZeeeXPXHnVFQwtGsTSpUvZsmULU6dOoaSklOMZlGSVklZJMkmjhER2cd06DWPJ+hGlNdIwwQxwtKWDPy9+izffep/rr5/Ht7/zCMUlRTjJG2ico98W+CjSO6CT/fAHAgQCPv7n9cVcc831NDYe5aWX/sgFF0zi7rvvYv/+/bz11jI6OkJcddVVjB07DiF0kpXzVmb0pqp50yPS8CQz40J4s7MEEkOaYAR5d/UHPPeblwhkFrDgmRe4/PIrMUwLNzmvUfZBkOGjlO1CsgDRmwuO8Bb8GzO2DJ8vg7feXEpFxUTmzLmetWtXsWHDBi65ZBq33XYbra0tJBLekpUpPlqnVgtLabkSnbxA73MpDbQ2kYaPxsYm/vDSf/P+lr189u4v8fm776W4uMhzFXExkssxCy1B9AWqv6ucGtBCo7QLykBI6J/TjyM1DXS02/iMACOGlWKZJn/5y1JGjR7Dpz41h907d7LivfdY//77TJgwngkV4xFCoVUCpWy0co5zF0KC9iZ0gkyuYZ1A6TiGZbJhw1Z+/ZtXCMcMHvrOv/K5z9+FZZlewkAIpDAAnZyl2zc1+pTW6/B+GsTxwmoEDTW13Pv524jGmnnoWw8wYEAeSjvE4nHWrlnPgf1VXDz1IsaMKaO+vo4tWzaTnZPF9OnTyM/PpfFIFW1N9Zip0FxIDKWTCT6FFpJAMIfGhlZe+NMSNm05yI033cGMT1xBIDODWZdfll5wsK9WJnWXU1wYJVW3LNNlmnt2bOGBB/4Jxw7xz49+m5xsP07CxjRMDuw7wPatu+noCFFePo7hw4fhD/gxTYOCgv4cra+m5WgdlkFyMDTwCYnSNsICO2GwcuUuXnllBfnFw3jgG9/kiquuwvL5eHXxEgIZPj51xVVnHZwzKae1As22bVv4zrcfxLE7uP++zzN0SAFOPIZlWMRiCfbtrWT/gf20tjQzYUI55ePLGTRoIA11hzlWX4PP9B59hQShsKwMDtc289LCZew/dIw5c/+Ru++9l5GjhqOU567Zts2S15dww9y5ZxKHsy4fEWidYkdBeBZx165dzP/SPYTbj/GN+7/IhPIyErZXjuvz+1DKpaq6ilgsSlFREUOGDuVoXRVN9VVYphfhYVpoU7B27W5++7t36JdfysM/+D5XXjUTy5AedyLw8oYabx2Qvjfefaic5ppKnsewZ9c+/v1f/o0P1q/ihrlXcv11n8Tv86K+uB3HtLxlhW3bpmDQMI7VHaC1YT+WKRD+bKobQ/zppTc5cKCa6+bM4/P3zmdU2Xk4GsxuQUdfWsvuo8hpAa0BV2sMIWhraWfBr37Ffz3/S0aPGsrsa2YyqaKcoE+inRjajaOVQ96g4RypOUR7SwO20qzasJvFb6yksH8p9z9wP5+eewPCMHGTUy0McXw9mo/TWqTd5YwA7S3n4z3NzzzzNL/4xc8Jt7cx/rxRXDlrBuNGl5CdaYJOUDi4lJqaWjZv3cqyd9bywbbDfOYfbuFbDz7EwEEFKDfpBotkHXYfddc+qpz+une6azXRsmVvEggGQQmefPIJVq96l/yCLCZNGseYMaO4aOpU3nlnOc8++ztGjBzLD77/Iy77xCdRhsZRDoYwvPniqQs87S72DTlrS2b+XbrKx2zs/vjK34E+R/J3oM+R/B3ocyR/B/ocyf8DLfDt+X/K8XQAAAAASUVORK5CYII=;" vertex="1" parent="1">
          <mxGeometry x="420" y="329" width="90" height="101" as="geometry" />
        </mxCell>
        <mxCell id="TNzRQn8XYRnPUrtMB-Mf-3" value="" style="shape=image;verticalLabelPosition=bottom;labelBackgroundColor=default;verticalAlign=top;aspect=fixed;imageAspect=0;image=data:image/png,iVBORw0KGgoAAAANSUhEUgAAAHsAAABhCAYAAAD2it6CAAAgAElEQVR4nO2dd5xcxZXvv1X3dpiemZ6cJY1yTiiAAkgjCSELsNdLNuC3fvZbr7PNrhO79jP2grH91vZ67WcvYBsw8CyQQQRZIEQQSAQjWSjnLE3W5OmZ7r73Vr0/bt+rq0GDMuBdn8+nP93Tc7vqVJ2qU+f8zqkq9H8Tamlp0YsXL9aAnjdvnm5ubtZKKa2Uer9Ze09o48aNWvLfhAoLC5kzZw4AY8aMobi4GMdx3meu3juaOHEif9HC1lqf0fPjxo2juLiY2bNnAyClRAhxIVj7wJEQ4kRha63f0YFaaxzHOWnHKqVQSr3j+5OVc6o6+vteKXXSss6kfI/GjRvH1KlTGT58OOAK+91+827t64+v/njr79n+yumvbqXUSTWSx9O71W8COI6DlNIXbGdnJ4lEAq01eXl5xONx0uk0zc3NfsdEIhEKCgoQQtDY2IhlWQghMAyD4uJiQqEQLS0tdHV1YZom4KrSaDRKd3c3HR0dPvMFBQXk5ub6dXgdkJ2dTX5+PkopWlpasG0brTXhcJji4mIMw6C5uZlEIuHP0tLSUsLhMJ2dnXR0dGDbts9TYWEh1113HeFwmCNHjmDbNnl5eeTn5+M4Di0tLaTTabTWRKNRiouLAWhqaiKRSCCEIBQKUVpaimEYtLW10d3d7XdmcXExsViMRCJBa2srQgi01sTjcfLy8ujp6aG9vR3bthFC+H0I0NraSiqVQkqJYRgUFRVhmiYtLS10d3ejtUZKSXFxMVlZWXR1ddHW1uYLMzc3l/z8fIB3aCtPZmZw9EgpOXDgAK+++iqtra309vYyd+5cLrvsMlpbW1m2bBmdnZ0opaiurub6668HYNWqVRw6dAghBEVFRdxwww3E43Fee+01Nm3ahJSSWCzGVVddxciRI9m1axcvvPACSiksy+Lqq69m2rRp1NbW8swzz9DV1QW4M3Hx4sX09PSwYsUK6uvrAaisrOSaa64hHo/z6quvsn37doQQZGdnc80111BdXc327dt58cUXUUoRDodZuHAhU6ZMYdq0aTz77LM4joMQgmnTpnH55ZfT2dnJ8uXLaWxsRGtNVVUVN910E0IIli9fzuHDhwmFQuTn5/Oxj32MvLw83n77bd544w2EEAghuPLKK5k8eTJHjx7l6aefxrIstNbMmjWLmpoajh07xrJly/z2DRkyhL/9279FSsnKlSs5dOgQAMXFxdxwww0UFhaybt06NmzY4A/yj370o4wYMYKdO3eyatUqlFJIKZk7dy6zZ8/m8OHDdHd3M2bMmBMELqVEaK21Uoquri6i0SgdHR0kEgnKy8sxTdNvSF/14H2WUmLbtq8S/YKF8L/v+3tPi3gz2xuN3kwIPu+9PK3h/e010itHCOF/55FXjlLqhHZ49fStv+9vDMMAOKF9nhb06gvyKoQ4gadgG0Kh0DtUdrAOb/B55XnlBFWz1wcnqxfAMAz27dvHihUrGD58OJdffrmvVYUQrrC3bdvG9u3bufLKK8nOzj5BMF5hJzNkgoyfrqETZK5vOf2pn/4GQt/v+uOp7xrW9/mTtfFkfJ6M31PxdLJnT7amnkmfnOz7YP21tbX89re/5eKLL2bhwoWAO3hkZ2cnL7/8MqWlpb6gT8ZEcJadysh6t9fJnu2vjL71B5852Xf98XSyTumvjnfj82T8noqnkz17MjqTPumPN3A1RGVlJZ/4xCeor6+ntbUVKaWrDdatW6c3b97sr0/BWfRX+sskIQThcJiuri5CoRDhcBgpJWZLSwtjx45FStmvi/VX+ssiz23Lzc3Ftm0g42ePGjWK0aNH/7dCk/6rk2c8AmzcuJHm5mYAZElJCaZpvq+z+t2Mjvey/nczyi4E9fUAzkfdfY3FtWvXcuTIEQDksWPH/Kn+fgjbcyc8O+G94CHoAkkpMU3T75yToVYXgoJtDdZ5PuoP2lzJZNLX2vLFF18knU77HX6hqa9rFAqFSKfTmKb5Dn/4QlGwMzxLVUrpo1d9+bxQPCil/IHm+fFBnOBsqK8bGfTJZXd3d7/+6IUgr6NN0x1cb775JnfedRerX1lNOBxGyOMq7UIK3TAMzFCITZs2c9dd32fVqheA4zPtQnskUkrC4TDbt2/nhz/8EX/84x9xHMcfbOeLsrKyjoMuV1111R1jx44lHA6/N2uWFkQjERoaGvj+XXfyox/+gNZjzTzx+B9oaGhg9OjRFOYX4DgK23YyI12AH7MRgdcZVKu9ASSJhKN0tHfw85/9jO/c8W3qag/zzNNPsmP7LsaNH0dJSQm2beM4niV77sFBd+C4fIfDERLd3dx77z18+9vf4sjhA6xYsYL1f17P6NGjqaioxLIUUhqAOuP6g4jakCFDqKqqIhKJYFx99dV3jB07lkgk4quTCyFwx1FEoxEcR/Hcyuf52te+Sn3tfr70uf/FbV/8NIMHVfL440tZ9sQysiM5TBg/gZAZRmtXQFoLwADEGcnZgzBdFW0igJeef4nbv/FN1r31Op/+9N/x9a99iQkTRvLCS2t55JHfE4tlMXbsGMKRMI5jI8W5zzYpJYYZwjAN3nh9Ld/8+j+x+uVV3HzTtdx++z8yedJYXnttDQ899DBShhg3fhLRaASlnBNU8ZmQaZrk5eUdh73Xr1+vhw0b9o6143ypMK1d/DcUCrFjx3buf+ABnn32WebOmck//K+PM3zwQBwrTTgaZe/+Qzz0yGOsfPZl5tbM4x8++1lGjByD1gLL8ma5BqHcd96dR8HxUW6aBrV1tfzm17/mqWV/YPLkiXzi725l8pQJOE6KUNjgSF0Lv3vwEZ57dhXjx1/E5z/3JaZNvRiNjdLqrDSftxyFQiEam+r43e/u5/898jBjRg3ns5/9eyZOGIfA7ffmlnaWLHmcJ5Y9zchRY/mHz3yOmTNm+Rj56dbtLUFZWVkcPHiQgoICCgsLMX784x/f4cNp5zij+66znqUdCpu8+OIqvvrV29iydSNfue3zfP7zn6Y4P46V7EWisKw0xSVlzJkzh6oBlfx+ySM8/vjjZOfEGT16VGYwBt2j/mFH3yBRLj+mKXn9tVe5/Rtf44031vL5L/w9t33lC1QOKMOykmgUoMjJyWLuZZdSPWgQq55/gSW/f5T8eD6jRo907YkzXMeVUoRCIUKhEFu3buO2r3yRFX98ik/+z4/z9a/dxuDqAVipHsANLedkZzNz1gwmTBjHimeX8/DDjxAKRfE07+nKyHsmGo3y4IMPEo/HqaysxPja1752R9DPO3cVrlFKY5ompmnS0FjPT378b/zHz3/GRVMm8q93/m9q5l+GnbIQNphCIoVAShPbAaU1o0YPZc7cOTQ0NvHoksdobmph2rTp/lLjsth/pwsh0EqTFY7S3NTIz3/27/z0pz+moqKEO++8gwUL5iNEJikDEEg0Aq0UWsGokaOZXzOPdCrJQw89wNH6BsZPmEAsFjulsINWcDQa5dixY9x333384Ic/JD+ey/e+87+55m8/iiklyrYwpIHEQGACroU+cNAgFsyrIRzJ4pFHHmXnzl1MnTqF7Ozs09Iu3v/D4TAvv/wy1dXVDBgwAKOmpuaO0tLSE9bsMyeB1rarXrWJaUawbYfnn1/Jv3zrdjZu+TNf+MJn+PJXvkhpeTGpdApTSgwtEZgIohgiisREihC2FhQVF7P46kVk52Zx36/vY27NXCorK3Ecm75tFYDQIAUIoTANiZVOsf5PG/iXf/5n1q1/i8/+w6f5p9u+zJDBg90EBQVSGJgyhCFDGMIkhInMtKWgMI+FV1xOcUkxv/j3/2DShImMGj0aWysEAqEzhqPwOAAhBVo7CMNAo1m37i3uuOM7vLhqJTddfx3f+dY3GTliCLZlo7VAGiGQptsH0gTDRAsDx9bk5eSzYO5cxo4ezi//81dMnDyZ4cNHgAJxCrslKOw1a9YwZMgQBgwYgLlz504mT558js68BiQCiWGGqT1ax7333sPjTyxlzpyL+Y+f/YgRI4aT6OlGWTYhYSKFxjAFyjERhBBaIHFQKMLCxBAOvd2tlBZmE8+OIBwbMuqWvqlz6njoMGRGqKuv51e//BVPP/UUU6dO5u67f8uYMSPoTXRhp9OuwSUyPm1gomopkMJBGjaGsOjpbKKyKJtYOARao5STeVwgtUD7HZ4JkwKhkElrWycPPPAA997zn1wy/SLu/809XHTRJOxUL8neHrSQCCnRwkAIiRQaBDhCI9CETEEYSHU3U5CrKMwPEzLdJdFOO0gp0KewVzzyjDMA04uIeOv2WZM20Fry2htr+d73vktnVwd3330XH75qEYa2SXUnMUXGmvYYNQSGMDIzRSNwiIYN0Clqj+ylof4Ixw4fwLAchOpnKGfUupASiWD9+rf5+te/SWdnO7f94+e59dabkWi6ujswBEhDYGjTtfOkV6bLkxIm4bBGqh7amo5waO9umg4eBu1kEg1MUOmTsuFZ/Rs3beTOO77P7l27+eZXv8otH78J01D0prqQShAOR1EatDDcpSOziGgcTKkJmRJTKFrqj3Lk0DYajtXipJNox0IrDZ7d8C4zOwj/XnbZZVRVVQFgehkSp4q3nooM06S+vp7v/uu3yM4Jc+9v7mfY0OH0JnpJOw7SMAGH48LWSCGRZgiURgowQ2GSvR0cPbyDY/UHkNohJNKgFTozm9+RsCAE3hTr6u7ghz/6V/ILI9z3mwcZMWyoDxeGzAja0RhCnqAYBAIhJWiFNMFxejl8cDetDYdwUr2EDcfvVyEy/aM1rtt8ojGa7O3lpz/9KceajvLI7+5j6vRppFK9OI5GyohbreOhhBk7QQgErrdghjTK6aHu8D4aDx8g1dtGVBoIB6Q2ERggrIxB2b+0vT5SSjFjxgz/e7OiouK8xLClgO7uNnp6Wrnu+hsZNKiYVLrTHbnhCBqNRiKEBhQSMIRECInQGuWkOXasmabmI3QnmtAihUCBtHGEwunXKBFoLTGlJJXuoaW1lptvuY7qwYWgBSEj7K6hwVw7YftdJQ0DKQRKOSTa62msP0h3VzNoB2G4w7N/CkC/CHp7e2lrbePKD81n9MhBOFavi1tg4iiBlA5gg5YgXWEjBFKANBTt7U00NRygt6MBdIKwIUg6JiEZBh3CHaXaNVB0/8IOTlzLsjAMA8MwkHPnziUajZ6DcZZprAZDa2JhgZPqYtP6N+jtaCU3bBDViqxQFiEzG9PIJiKjRGQEQ5hIQ2I5vRw7VkdrYx0q0UPEhjAGMmMHIEBIUOLENkrtvhDgIFBaEI1GEVaSTW+8SkvtASJSYGiBECaOodERBaaBDIcwQwYh0wDbor2xgebGQzhWF2EsTG0hcNCG7n99FDbggHZzsqXSZEdMYiZs2/AWrU21hEyQQiGlwjAFwjQQkRAiHEaGJNEwSJ2mvbGelqOHcRIdmFgIaWEbSSyZxhaghEKLFCARKvTusgjksT3++OPs2rULADMej/spuucEpAgDCKFtg5xwNqU5eezduJHuqoFUDR2OaYQxCKOVZ4E7QJquRAftHS30dnchtMKQEsdVrhnU7FTwqD7+LiQCg2g0h7KSMg7t2Ux3ZwuDho0mFMsBLVFSIEQUUOCk6U100tHcSLKnG04Q6pn3hWF4yZcOFRUF7N+zha6uFgYMHko0OweUidYRHEy0EBgYJLs76WipI5low9AWEWGQdkyUE0ViZwZU3+afPriyZ88eqqurATAPHjxIRUXFOUdbkBqlFUKYvLF2PfFwjDkzZ3CkoY5j7a0MGDiYoqIKwtE4iDB2Ok063UV3Zwd2OomR8Z0UuGrOU1nIzN/vorZQaCUQGUh1w/rNiLTFvDkzaWpppOnPx6gYNJjisirCWTlooXAsi96eTlJdbVh2D0JaaEd5vXQWHSBQ2s0337FrJytfCFEzfwFt7c3U/6mOqgEDKK8YSlasAENqHEfR09NNMtGFslOYhoOyFEprhJIYOoRQBpDB58+Ak2B+gJeRCyDXrFlDKpU695mtUwiRxDANItl5/OxXv+WX9z9CVfUIBg8cQkdjI1vXv05z7T7SyXYSiXZ6urswpMAQILRCaAd0xrXS0tXZvuDfrbkqo2olUpjk5uRz730PcvdP76GgdACDhw6mo62RTetfp+HgHsyeDlTHMVSiExwbaZgoeW74txfm0FoTKyjj4T88yw9+8ivyiioZOWYiPb02Gze8xYF9W3Hsbrq6mujtbUOrXoQpsIWBIyWOAEcqbKlQQp1Q/ulSEHTxchUATC+RvW++85k3VgMOtmMxYFA1s2bPIZqdzaH6dhJtLcyYOQWh02il6Ok+RiplAxqlHR/qdjSu0XIC7n0aPGWMPrTCsW0qKiv5/Be/iDJjtCfSbNuzizmXzsTQEqs3RXdLM2nLwg0mqcwwOvfIlkKTdizyC4r51Kc+gzBM9h9uprVlOzU1c6geNIxkbw+dbW2krTRSaLS2XBgYiUK4dol01+jjMQA4vpRl2nqaVF1dTTwed1sYTEc6N2FLEGG0o9GOza7dOxkxagxjxl/EfQ8u4WN/9/fs2H8IEY3iKAelHBzlIHTGqRLCNbI83FtkAh7CA1L6b6BvtGlF2DSIREzWb1jHoAFVDB8xmiWPPslNH/sUb/5pA5FIDraWqIzro7RC4yCw+y3/lJQxHIVh4AB5sRib/7yB8rJKpk2byepXXufWm/+OtWveIhKOI5REWTZ22kIpt60SjdQKoUBqifTsFZHRGf5SduoAkEeWZfHhD3+YYcOGASC9HQPnGtoUyMwI1YwYMZTRo0fw9a/fxmN/eJT/8alPMWL0eLbu2I8SERJpm5RjYVtpbGWhtIMvUHEWA87vCIFtW1RUljN58gR+8KMf8OCDD3Hrxz/F5Ckz2bJ1NxoDx7Gx7TRpK4VjWyC067uey2DXrhCUUsTzcqmZN5cf3P19HnjgQa695nrmz7+CP/95HZbVi2UnUcpCqTS2nXKhZl+I3sA+faG+GxUVFRGJRAAwZ82a5ePi50ZuZwsEHR3tXHvDdaS1xX333Uf1oOFcvmA+My6ZgZW20ZmGokHZ7lot0AiZ6fQzrtcA7dYtBPT0dPGhKxeSW1zCf/ziXvILyli8aDGXzphGyk5j22k3MUE4gANCZfz/cyMvKtfV1cKHr17Il43P8bNf3MPzz6/gykUfYkHNQqShcNJJHJXO1K8yC4jK8OFqmuMa7Wz4cNtiGAabN2+moqKCkpIS5MiRI/19SOdOLmbrKJu29hYWfWgh//Zv32fsyCEse2wJr770Aoa2EXYv2kn56lzpcxzJJ5wpoEmlk3R0tHDxrEnc/aPvMemiiSz9w2M8/sRSorEQGgfHsdyXstE6o1HOQ86GQJCyuujobODiGRP54Y++x8KFc1n9yvP8fsnDGAZYtjuj3dntajaNcmFfcWaq+qQ8BPzsFStWsH//fgDMRCLhT/NzSUvSGBlgXyO0hXBSJDsdJo8Zw8zJ01n10sts2brFHXU2YKXASKK1i5cfh3vPtJEaIVMoYeAIjRag7BTCseg+1s3YwSOY+fUZrJk1k1UvPodC4dhplJ1GC40UGiXdtkslQGkcrVASUC5o01+PSCXRQuAIgZnxKEJKYYoIytIkWlsZVlnKlC99jg9fuZj/+9P/QKU1wnHAsd1VQwsc4RqXrvEhQRsuYqYlp8LwTkXB/dzm2rVrufTSS30U7ezJFZjKjEoBhEyTnu4ukj0phg8fSmFhHsqx3eiR8kKiGqWl6yuf1YjW/ktnDKWQaSDRmOEIyd5ebKuZ6kEDuHLRFfQmunEcC9uxXD0kM+ijPl736XPRdxhkQhsaTDOEGQqTtmyONTcTj+dy/fXX49gWWimUY2WCO8JLc8zg7l65Z69mgnIMpk2bhw8f9iV/XnLPMvWYhsH+/Qfo7OxmyuQp5GaFyauqQKV7cVQKBxuUAk0mz8xbr89BfeHZdwLTNDlSe4S6hmYunjGbUNhk6OBqdCqJY6dxHAt3vRTumEO7FrDIxIvPgYRwkKbkSH0DtfXNTJ82jaxwmAnjx5BO9aKU7Q424QlbuCLXysulynw+Oz6CcQ7TNP2MVXn+EvO1z5wQglQ6zcqVz3PPff/Jvv27kMpGp3sJS1DKwnJSOMrGUTZK2TiOu34d93vPho5HewBeW/sq9/721+w7fACFg2OlCSmN1sofWK4LaKO0q3HOfeEWCBSGKVnz5lv88tf3s2HTZpSy6E0m0FrhaLfNXp3KcdysGaU9Kw+VeT9b0trNxFmwYAGDBg0CcI/ZOF/kdZNCkxWNMmLEUA4e3u8GMbSNnU4jpMS2LSzLwjSE+7R2U4IQmUVAeH62p1ZFZmHIIFUiGBUXgXHmagdpuMkBQ4YOJX/TZqx0EqVtd0ajsZVrkQuhkUJ4ehzlSB8FO65OQQmR4SGgYIVGC5WZlZn264xK1gLtaIYNGUJp8WZCIQPbTmM4ApnZauU4dgbeDdgrGoTSGe9LBaICXs3Sq+jUsshsQpg+ffrxWT5kyBBCITeKci4GmtsdCiVACYmtbWbNnMqY0cOpHDCInnQKpEAgsW1QjsYmEzXyUAmdmZmeS+Sv46AymSEKnYkFe/Xipghp3OCKVDjawXIUky+aSlXVQKoqK9C93ThCkxRgqxSOSrkpSBlhCQ3aCSFl5hvhZYNoHCFwpIsjyAzQof0fkQFEXKFpIdEiikprZkwYx7DKMvILC3BsC0EEpbTr5zs2wp+57lBWysBQuFk8huMCLlplgiEatIlrmziZz+9OUkp6enowTdPdtjt79mxCodB58rMlQkuUo9w88UiM8vJyrFQK5dhox3YFohXasVG2hbLT7rtjoxwbHAdTKYQWCExMGcIEzIzpd3IKiF5LrLQGbRAKGVRWVmDbrkGmHAetFcq2cCwLx7bcz5kXuKpVGAKFAkOgQ+J46f1MBA1ordxUIzRW2kY5rklSWlKGEIYbwdMKgUIrJ9N2C2VZ2LYmbQvSSpHGwpIWtqFxTNCmQEuFFhY+An+ax9dJKVmyZAnbt293/47FYn5k5JwMtIyhFQ5HOXK4lmee/iPtHV1IIVF2GqEdN9fKcTIpNvbxBtuW+51jgeOAkhihbJSMsfdgPcmUg4GREWdmA2CgapExapTSGEaYo0caeHLZcpqaGjFMN4FQawdHWQihUZn6UY772bZQjkU61Z1BtWyEjKJENvsPtZJMWZiB6NHJ2g7uUpQdy6atrZ1lTz5NQ0NjZokCR7mJBI6VRtuB9jsWynLQtoOyk1hOEks5aCOEDOWx/3ALjS0dKK1xE2rUaRuQQgjq6+tJpVIAyLfeeove3t7zsMfIjVQpBQiD5uYWnnzyKXbu2IEhQQqBY6VOmNWOnXZnl2OjHQedMVSEmU1jWy8//c+HefD3y/nb6z/O0OGjsZ3+8OuMuyckYGAaUZqaWnnyyWVs3brZzTszhAteaOd4/VYaFZjhWqew7RShcBZd3Yr7fv0Ev/zVMq699kYuvng6lmX106n4gIh77JUk0Z3gmWf+yJYt23AcjSlDbhu9uEBQo9hJhJUAuwesJFEzSjoBSx55np/85BHmzbuasRMmk7bThEyTM/FYghs2zS1btjBq1KgzkWo/pAAHITXhkIHQmq7OBMv/+CyDqwcwfdolVFWUY2sbS1s4jsbNlbbQIg2GgRQGwsxm3ba9/OKX92KrCLd/626uueYWQuEw2kn6o9qzUXyjSWcAEKUwIwaR7AgdiSaeW7mSrZu3M33aFCorSlFa4WiJ7bgZpAKFFgYKSdgEaUTYtGU/v7n/cZqak3zj9ru49mPXEM2KvhNlzCQuaqHdKJWhsbVNOBrBAKzeFC+++BKbt27moqmTGVo1AClCYKcRtpWJE0oMLAxtI6VJKJzL3r1N3Pvbx9h1sIHPfPFrfPx/fIJ43MUokBkj/RST29NC7p61DKgSPObpXFW5EJBOp4ll55Dq6QKtCZkxGhu7WPbEci69dCazZl6EbaewnB5kZnBoLYiEs2hu7uTxJ5/ilTe38aHFV/HZz36JwUNGZlA2p9/2aYQraC1IpVLEcrLpSrShHAPtQGNjC8ufWcnkSeOoqZnlLhVOGiHTaBSOjGBGYnT0WCxZspTXXt/KtIvn8uNffI2x4ycgpOMfVHdixcf9DwBbOaQdh0hWBCzX4tdAS3MLq557kQnjx7KgZhZKWyjHjf0rJXAIYYRy6U3aLHliOc+sfI2LLpnL/Xf+jKnTpiKlcPecSZHRnKdesz1ehw0bRm5uLpCJZ5+fQ3MUOTm5hMwsDu6v5dZbrmPNKy9Se7iegrxc0raFVG5ynVY2jtONNiwioQJsJ8pLq7fw+yXPkFdQzh13/Igrr1pMTm4OKTuNEq47YvTjKSrc7NNQVoTcvAK2bdvNxz52HevffJNdO3cSj0Xo7elyM9q0gbBTYKXRhsYIZaF0Fq+/tpklT65BYfDN79zFFR+6krz8QmzHQThOpqP7TobjzphSmkgkm1g0zoa3N/GFz36KDX9ez/59+4lFC0j22li2wBGStEpj6yR2GkKhGCqUw+sb9/DY0mUkehT/cNs3uOGmj1NUVIiVTmJZdibf4Mwk4jgOV199tQ+HG7fccssdI0aM8N2vsyWl3GMbC+L5LH10KdGwyaJF83HsFF0d7XR1tjJkyAAGDiiltaUeZTuYZjaNjb089MgKlq9Yy1V/cyO3f/sO5s5bgDAktnJwtIM03fX2ZMJ2PWsXV45Gs8jPL+Chhx5CCMnCmgWgHdpa6+nuamVAVQVDqgfR2lKPbVuY4Rj1Td08/OhzPLl8LRddMp/vfPdfWbjoCkLhUOboEeEDmu+Y2Z7Dn/FEsiIx4vEClj/zR9rbW7nqqisIGdDe2kp3RxdlpWWMGFZNd1cjPclOzEgObV2ax5a9xKNPPMeIsVP55+/exUc+eh3hSAQrlcIw5Ds22J+KvInrnSzp/dY8X66XRqEUfPSj15JKJvneHbfT0trIJ//uRpHw1L8AABa4SURBVJxpvbz6yiuYpouJG4aJEFn86Y3dPPqHZ5GhOP/6/R/zN9deizAkaSsZWJPcVGEpRf8Rv0ynO0qz8IpFdCe6+Jfbv079gUN84fOfZNq0kby2djWRMG5miDDAjLJhyx4eePhJbFnAV//5+1xz/XVkZ0dwrBRa2ZiE3PiEPA7hnEhe/rYL7Fi2w8LLryBimNz25c9wrLmB277890yfehGvvfIG8awIhqOQSELhbHbsreOhJStpauzmH7/6Da676VZiuXGsVBpT25gG7zi18XTJ2zn6+uuvU11dTVVVFSKZTGovNem87OLMZH888cQT/Nv/+T+Ul+Rz7YcvZ9qUcWRFJXkFcd5cv56lS5ezdct+Lpkxm89/8StMnjqDVNLGUQrkmUV69Ak4liv75c8s5xf/9mMiYcW11y5m+vSJZEWixHPjbFj/Bk898xzr3t7JpGmz+dI/3s6kKVOxrRTacTiuns+8/VprTCFY+8rL3HnndzGk4oor5jP3stnEomHy83PYuXsbTzz5NKtXr2PChKl8/iv/xCWXzvUBF788zi6Xw+MjJyeHu+++m5qaGmbOnImoq6vTsVjsvG7C97YTrV+/nnvvvYe3179JeUk+06ZOoLi0mD889RRKRfjKl/+JD125mGhWDOVoHJ1JfzjDBgohUI4Lk6bTaSKRCKFQiP179vHzn/+UV1a/SFlpHhMnjGPQoGoee/wJEj0Wn/3s57jhxpuJZeeRStsY8ty0m39OijQJh0Ls2b2LX/z831m75lUKC+KMnziS4SOH8MdnV1JX18wn/udn+PitnyK/qJCe3oSLd6jjAZDzJez58+dzySWXIH7729/qq6++mmg06j94ruStF6ZhIkzJ2tfW8tj/W8KWjRvZd3Afi65ezLe+/R0GDBxCOp3MxHLdzAyJROgz9/mD65pWLpqFdCM+69f9iYd+9yC7d29n357dzF14Fd+8/ZuMGDYMO512ffvzkbngMgLCxFGakGFgSsnBg/v59b338vbWP7Fj1w4mTZrOHd/9PhMnTSGVclBOCimcdyB150PYd911FwsWLGDGjBlu8oInnPN1LJQ3wi1loR3NrJmzuGzGXA7uOcjBIweZOHUiuQW59PYkkFL4VrLURiYQcnZ1Qsa/9Pc6pdAqxJSLLmbGxbM4cngf+/buZMKk6eTl55HuTR4fGGepuk/CCLZw0AakUdiOZODgIdz5gx/S0HCUPXv2MGLEOIpLy0n2pkDYCOH4gZ7zfcRJJBI5DqpcqANzhBDu6T9Skkr2IrXFoMEDqR42CFtZOCkLg+OZINLLPBDnJ9EOQGqNUm7KcG9PirKyMiorynBsjbLSoDXSMDIuzfnrBxchzwweobAdC41BSUkpZaWVaC3cqBs2WlsZ5O/4bD5fpJTiIx/5iH9Ivtk3X/x8HpNlGAZoMKTrMlmk/Cwbgbuxz2csENI8f2S4eDJecEOglCADsx8PZ55n8tOAfdIo23LDu07KVbN+4NZ0Q53Cf/S8kVKKESNG+DF+OWbMmPN+aM4Hhbw1/MSjpbQfJ35P29tnq7HHlxDi/E5njtsvUkqampro6elx/542bRpZWVknnMx/uueGnA+mLmSHn+yc7gtV73t97umpyONn6dKl7N692xV2UG2fTgcEnw/i6cHjHE6XmfOxE+VUdLLbcryUHY//YCrTmZA3e7xTjPpeQfF+kxCC9vZ2kskkAPKNN94gnU6ftp/tdY4n4FAohJSS+vp6Pyvi3dZ977tQKOTfd3EhT0T2DMV0Oh1Q68JPxOt7D8qZkDdITNP0tWIqlfJDoe+n0IOnHPoJh7t27cKyrLOC5JRS9Pb28sQTT7Bq1Spefvll6urq3nHoq9eZwTrq6urQWlNbW8tLL710wjPBdS34e+CEcvs+470bhnHCOTFr167l8OHDftlejDedTlNfX08wGNS3bK+svm3w+BBCkEgkaGpqIisri5dfftm/EcjjoW8fXOhBENQywUkkg2eqnOnsklKyadMmdu/ezaJFi5g8ebJ/ONyhQ4dobGwkFAphWRaJRILa2lqUUjQ3N/Pggw+yYcMGYrEYAwcOxLIsUqkUXmqzUorOzk4cxyGZTNLb24tpmjQ2NnLw4EE/UaCnpwelFO3t7XjHSmzfvp3GxkZfTTc0NNDR0eHzceTIEYQQNDQ08Lvf/c6/KiqRSLBv3z7/Vp7Ozk62b99OQ0ODX5d3dndbWxv79+/HNE02b97MI488wuHDhxk5ciTDhg3DMAzq6+s5fPgwhmGQTqdJJpPU1dX5WuZCkifT8ePHU1hYCIDpqeSzUaO2bbNr1y7Gjx9PRUWFvxf4hRdeoL6+HsdxmD17NgcPHmTDhg2UlpZSVFTEuHHj2LZtG+PGjaOwsJCjR4/S2NjI66+/ztChQ8nJyWHOnDmsWbOG2bNns3nzZuLxOJFIhPXr1yOlZODAgYwYMYJt27Yxe/ZsVqxYwYIFC1i9ejWxWIzJkyf7jTYMg1gsxsqVK9mwYQNDhgyhurqa/Px8Nm7cyOzZs2lsbGT1avdk5NraWkaNGsWzzz5LQ0MDQ4cOZezYsTzwwANcddVVSCnZunUrjY2N7N+/n3Q6zdtvv82HP/xhDh06RHl5OVu2bGHdunX+BXJDhw7loYceYsyYMaTTaW655ZbzlPvXPzmOw6JFi46r8ZKSkrOuUErp3wfm3YzX1NTE9u3bueyyyxg0aBAbNmzg6NGjVFZWMnr0aHbt2kVZWRk1NTVcdNFFdHZ20tTURHt7OyUlJcyePZu3336bRCJBQ0ODf4NgU1MTGzduZOjQoVx66aXs3r2bI0eO0NraCkB9fT29vb3U1dWRSCQoKys7wWDSWtPc3ExlZSWTJ09m48aN5OXlUVNTw4gRI1i3bh07d+5Ea81zzz3Htm3bSCaTTJ06lYKCAtra2pBScskll5CXl0dJSQnd3d3s3buXoUOHMn/+fAYOHMj+/fs5duwYGzduZPz48cycOZODBw/S1NSEEIKZM2dSX1/v3wB4oSi4uc9fei677DLC4bDfKWdSmGmalJaWsmfPHr9D29vbMQyDgoICioqK0FqTm5vL0KFDKSgo8G/p84war85wOMykSZMoKiry15x0Brf2VHkymaS4uJiioiKi0aj/jG3bWJZFKBTi5ptvprOzk2XLlvlq3EvNicVijBkzhoKCAn8zo7eudnd3I6UkHo9z+eWXE4/HOXDgADt27GD48OFIKRk/fjy5ubns3r2b7du3Y5omXV1dOI7jt8frG8uyKCoqori4mHA4jOM4jBo1ipKSEmKx2AkG44Ugzz546aWX/JsAZXl5eeBM0DOrWGtNTU0NXV1dPPjggzz66KOEQiGKioq45557eOmllxg2bJh/5iZALBYjFArR3d3Nyy+/TDKZ9EefJ9hwOExeXh6pVIqlS5eyefNmiouLGTlyJE899RSPPPII8Xic0aNHc/ToUZYsWUJ3dzeGYfjvnZ2dfud7pyKHQiHfOhfCPVmpra2Nt956i4suuoiioiISiYR79GMm17q8vJy8vLwTjMu2tjZqa2tJpVL+lY379u1jy5YtRKNRTNNkxIgRPP300zz88MPE43Hy8/P91CZvT/yFJC/e8dZbb9HQ0OD2wyc/+ck7vFMOz4SCkZVBgwbR3d1NTk4O48ePp6ysjHQ6zahRo5g8eTIFBQWUlJQQj8cZOnQohYWF5ObmEo1GGTRoEAMGDKC6upry8nKysrIoKSmhtLSUsrIyTNNk0qRJTJw4kaqqKrTWFBQUMHPmTIqKiojFYmRnZ1NTU0NlZSVdXV0opZg3bx45OTmAe+FrRUUFBQUFVFVVkZeXR1lZGRUVFcTjcYqKihg+fDiGYeA4DkVFRTQ0NNDW1kZFRQUvvPACc+bMYdiwYWRlZVFaWko0GqW0tJSLL76YyspKsrKyKCwsZMyYMQwaNIjq6moSiQSlpaXMnDmTiooKysvLycnJobKyktLS0nM+2uRUsolEIqxdu5Zhw4YxYMAAxH333ac/8pGPkJOTc8bAQlATeLPTG73eTA1eweA1zPNNg+5I8KAXKaWvloP3jXlLh/fZtm3/BoS+d4IGgRLPEPLUtseTbdt+eZ4F7v1+zZo17N27F9M0aWtr49Of/jThcNi3Tbw0Ltu2/fZ4B8x5vGVlZeE4jq8BPL68Nl0oCk7EO++8k8svv9wNcfb09PhMnCkFj2AKCgs4oTH+0UyZkRwUWPBZj0nvrgxPrXv/61tPcCB4z3kCD7bH86P7ImWeSg/y7Kn46dOn+xviiouL/euwPHvCS7z3lj8v28e/aUdK/xnvspuT1XmhyGt/Xl6eP9D8EGcQGTvbgk/3uf6eD35/Mjz7dOruz408k8GstXsrblVVlS9I4KQXtgT7q7++e7d2XSjyQKObbrqJrKwsV6MEdwy81/BeUDMEv+sP4PEzUQK/OxnPQbTtZL8/WZ19ydMYnpr21HffOj7IJKWkpKSErKws9+9p06b5rtd7TUEX62QwZRA311qzb98+6urq/N9566HX8d6zQZdLa+2vsb29vbS3tyOE4PDhwxw9evQEO8JbYoATLPngXV9eeef1AIPzTMFl89ChQ75PLydMmPCeXeDWl6SUHDx4kFWrVp0glKDxFIlEfLhx/fr17Nu3z7/47bHHHvPhS09QQaEFBbV7925+/etf89hjj7Flyxa2bt3K/v37fSMweGk5HL/byzPcgoagx+sHNf4f1F5/+MMf2LlzJwDSW4/eq2sJgwyZpolt29TW1qK1JpFIcPDgQR8H7+npobGxkWPHjhGNRv0olRdZmjJlCkVFRaTTadra2mhtbfWt/KNHj3LkyBF/pm/atImioiJuueUWRo4c6QtOKUV9fT0dHR1+SNCz2ltbWxHCvXy8sbHRN9IOHDhAfX39e2ZsnS0JIeju7vaNWvP1119n6tSpvl5/r8izXL27MNvb23nmmWeQ0k0HvvLKK/nNb35DLBYDYP78+f5zS5cuZebMmRw4cADDMPjJT35CcXExqVSKj370o+zdu5fm5mYuueQSH90aMGAATz75JGPHjmXy5Mm+sNevX8/evXtpamriQx/6EGvWrGHx4sW0trZy5MgR8vLy2L17N7ZtM23aNHbs2IFpmowZM4bKykq/Uz+oszyoteXevXvfN0a9mWWaJrW1tezZs4eSkhL27t1La2srWmsWLVpEeXk59fX1ACxdutQHXI4cOUJvb68P+E+aNIl9+/bR3t5Oe3s7RUVF/to/depUrrvuOh5//HFWrlzpo4bDhg1j2LBh1NXVUVdXR2FhIXv37mXz5s2Ul5fzyiuvUFxcjGVZbNy4kZaWFnp6evxjnc/3dYoXkjLHhl74y05PRo7j+Li1ZVnuUZDxOH/zN39DPB6noqKCwsLCE3Lay8vLaWtrI5VK+SrbQ8ji8TjpdJqrr76aUaNGcf/995NMJtFa09XVxaRJk1i0aBEHDhzwreuXXnqJ2tpaYrEYlmUxfPhwNm7cSDqd9oUspWTChAnMmzePW2+9lVgsxu9//3t/sH5QZ7VSivnz5/sDU3ooF7y3CXhe/HjTpk3k5ORQXV1NQUEBiUSCwsJCcnJyiEQiSCnJysoiOzubcDjMVVddRXd3Nzt37iQvLw/DMMjLy0MId29TLBbz11zPHpFSsm7dOp566in27NnD8OHDfQy7vr6e9vZ2urq6CIfDjBs3jn379pFIJKioqGDixIm0tbURiUTIzs72AZr3877xU1HQw5g1axYVFRUAiKVLl+q5c+f6SYfv5ZXCPT097N69myFDhhCPx31VmpOTw+jRo2lubiYej/vpTh6oYVmWD6eGw2E6OjooLS0llUr5M/nQoUNUVlZSUVGB4zj09PRw9OhRhBAMHepeFCOE8MOiAMOHD6egoIAdO3aQnZ1NZWUlyWSSffv20dPTw5AhQ0ilUtTX1zN48GA/QvdBSzb0ePIOMvSM4RP2enkuBbw3szwInQbRqWDneWo0mBrkGXbec0E3yYNQPdfI+65vWlQQD/fK8fxyDwMP5pcBPtbvhUe92X3OtzCcZwpi408//TSjR49m5MiRyIKCghNuhj+b9KSzJU8wXnxbKeWvgV5netZk8Dvv3XsFf+c1NhjYCIIwXn3ACQiZh3sHgzLBYE7wuArPvvDq+iDT22+/TXNzMwDSS6t5P5j2BphhGO8IpMA74c5g9kUweS/47s20oA/cV816FvrpJP8FywkmMnpa5oMubG9HK4Bcu3btCXDlBwEf7/s/j4JBm/NR5+mW0zdY9F5qv3OloCEpe3t732d2zj/9pQjiQpPWmpKSEt91NftGkv7aUf91SCnFzTff7Ad3zOzs7A803PdXOjfKzs4GMhkyU6ZM8Q2eD7qx8Vc6c/LgYyEEctSoUe/ILv3rLP+vQYZh8Oqrr/qpxKYX/PfckaBf+1f6yyUPoRRC+Cccyg0bNrBx48YTdiL+VdB/uRRMXDhw4ACRSMS/LF0WFRWxdetWvCzTv67bf9nkgUtSSg4fPsygQYP83TNy8ODBhMNhVq9efU4VnC69m+a40APt3cp/N5ulPzDl3bJJT1dDnosWPZlR7SGRjuMwceJEpk2bdjwYEovFmDdvHm+++SbJZNIPKwZzrII4cLDwYL6Wl6MVzM32YMVgwCIIUwZTg4JJcsFE/2AeeDDrom8+ufcK4uTBbTZekCPIV7AOr+xQKHRCuzx+PYTRC7p4mHlws4NXRxBO9cjjyWuf1yfBYErfNnjtCyZIBP/X177yytm3bx95eXkMHDjwxExcx3F0Mpn0G2xZFp2dnbS3t5NKpfztKlJKamtrSSQSvnAHDBhALBbj2LFjNDU1+ZWVlZVRUFBAV1eXv+leKUVJSQklJSUkk0lqa2v9MGNWVhZVVVUYhsHRo0f9bMhwOExVVRXRaJSmpiaam5v9JEJvK017ezsNDQ1+BxYXF1NYWEgikaCxsdEPdOTk5FBeXo7WmqNHj/rXSIfDYQYOHIhpmjQ1NdHW1ubbL2VlZeTm5tLe3k5zc7M/CEpLS8nPz6e7u5uGhga/fd5GvnQ6TV1dnb9JIBKJMHDgQAzDoKGhwe9DgAEDBpCdnU1rayvHjh3zBVpWVkZhYaHfh15QyNtBmk6naWhoeMeJEhs3bqSjo4OPfOQjftKCP7OFEL5OBzeis2HDBjZv3kwqlWLw4MFce+21RCIR3nzzTfbs2YOUkpycHG666Sbi8TiHDh3i+eef92ffwoULqaioYO/evf5uSqUUNTU1VFVVcezYMV588UU/GjNkyBCuueYaTNPkz3/+M9u3b8cwDAoLC7nhhhuIxWLs2LGD1157DSEEsViMxYsXM2nSJHbs2MHy5csBSKVSzJ8/n5qaGurq6li1apWfNDhp0iSqqqpIpVK8+uqr/ma34uJibr31VqSUvP3222zatMlPmPDOEDtw4AAvvPCCPyEWLFjApZdeysGDB/32AUyfPp0rrriCZDJ5Qh3l5eXceOONhMNhNmzYwNatWwGIRqPceOONFBYWsmvXLl555RV/xi5atIjKykqOHDnCihUr6OnpQUrJ1KlTufLKK+np6WH16tXU19f7AZrS0lIGDhzIvHnzGDhwoK8NfKNNBxaNvhkrfVVwcAT1DScG86k9IyF4ApNXbjAdN6hKg3uw+i4VfdWcN5P68hMM0Xrhyf6O/erPvfSe98oPfg7+Jrj89OU92Ebv1TdPoG+INNgXwfYE4/fB5dErI3icSLD+k8XZTxD2f3V6rzJKzlc955vf/1bC/u9O/x+oFfnh1FQCIQAAAABJRU5ErkJggg==;" vertex="1" parent="1">
          <mxGeometry x="387" y="680" width="123" height="97" as="geometry" />
        </mxCell>
        <mxCell id="TNzRQn8XYRnPUrtMB-Mf-5" value="" style="line;strokeWidth=2;html=1;strokeColor=#82b366;fillColor=#d5e8d4;" vertex="1" parent="1">
          <mxGeometry x="10" y="40" width="530" height="10" as="geometry" />
        </mxCell>
        <mxCell id="TNzRQn8XYRnPUrtMB-Mf-6" value="&lt;b&gt;&lt;font style=&quot;font-size: 20px&quot; color=&quot;#ff6666&quot;&gt;CI/CD Environment&lt;/font&gt;&lt;/b&gt;" style="text;html=1;align=center;verticalAlign=middle;resizable=0;points=[];autosize=1;strokeColor=none;fillColor=none;" vertex="1" parent="1">
          <mxGeometry x="40" y="10" width="200" height="20" as="geometry" />
        </mxCell>
      </root>
    </mxGraphModel>
  </diagram>
</mxfile>
